<svg xmlns="http://www.w3.org/2000/svg" width="685.186" height="79.557" viewBox="0 0 685.186 79.557"><path fill="#009EDD" d="M196.967 3.333h-22.25c-1.522 0-2.817 1.106-3.054 2.608l-8.998 57.055c-.177 1.125.692 2.145 1.832 2.145h11.417c1.064 0 1.972-.774 2.137-1.828l2.553-16.174c.237-1.504 1.532-2.61 3.054-2.61h7.04c14.656 0 23.114-7.092 25.325-21.15.995-6.147.04-10.978-2.84-14.36-3.163-3.72-8.77-5.685-16.215-5.685zm2.568 20.837c-1.216 7.987-7.315 7.987-13.216 7.987h-3.357l2.354-14.912c.143-.9.92-1.565 1.832-1.565h1.538c4.016 0 7.81 0 9.765 2.288 1.17 1.37 1.524 3.398 1.082 6.202z"/><path fill="#1C3687" d="M38.27 3.333H16.02c-1.52 0-2.815 1.106-3.053 2.608L3.97 62.997C3.79 64.12 4.66 65.14 5.8 65.14h10.624c1.52 0 2.816-1.105 3.054-2.61l2.428-15.39c.237-1.505 1.532-2.61 3.053-2.61h7.042c14.656 0 23.114-7.093 25.325-21.15.995-6.148.04-10.98-2.838-14.36-3.167-3.72-8.776-5.687-16.22-5.687zM40.84 24.17c-1.216 7.987-7.316 7.987-13.215 7.987h-3.357l2.354-14.912c.143-.9.92-1.565 1.832-1.565h1.54c4.015 0 7.81 0 9.764 2.288 1.17 1.37 1.525 3.398 1.082 6.202zM104.774 23.915H94.12c-.912 0-1.69.664-1.832 1.565l-.468 2.98-.745-1.08c-2.308-3.35-7.45-4.467-12.585-4.467-11.77 0-21.826 8.92-23.783 21.43-1.02 6.24.427 12.206 3.966 16.368 3.25 3.827 7.89 5.42 13.42 5.42 9.486 0 14.75-6.097 14.75-6.097l-.477 2.96c-.18 1.128.69 2.147 1.832 2.147h9.595c1.52 0 2.815-1.106 3.053-2.608l5.76-36.474c.178-1.125-.692-2.143-1.832-2.143zM89.926 44.652c-1.03 6.088-5.862 10.174-12.026 10.174-3.09 0-5.564-.994-7.154-2.875-1.576-1.864-2.17-4.522-1.67-7.483.96-6.033 5.87-10.25 11.94-10.25 3.026 0 5.483 1.003 7.104 2.902 1.63 1.912 2.273 4.588 1.806 7.532z"/><path fill="#009EDD" d="M263.47 23.915h-10.653c-.913 0-1.69.664-1.832 1.565l-.47 2.98-.744-1.08c-2.307-3.35-7.45-4.468-12.584-4.468-11.77 0-21.826 8.92-23.782 21.43-1.02 6.24.427 12.206 3.966 16.368 3.25 3.826 7.89 5.418 13.42 5.418 9.486 0 14.75-6.096 14.75-6.096l-.477 2.96c-.18 1.128.69 2.147 1.832 2.147h9.595c1.52 0 2.815-1.107 3.053-2.61l5.76-36.473c.178-1.124-.693-2.142-1.833-2.142zm-14.847 20.737c-1.03 6.09-5.86 10.175-12.025 10.175-3.09 0-5.564-.994-7.155-2.875-1.575-1.865-2.17-4.523-1.67-7.484.96-6.033 5.87-10.25 11.94-10.25 3.025 0 5.482 1.003 7.104 2.902 1.63 1.912 2.272 4.588 1.806 7.532z"/><path fill="#1C3687" d="M161.52 23.915h-10.71c-1.023 0-1.98.508-2.557 1.354L133.48 47.025l-6.26-20.906c-.392-1.31-1.596-2.206-2.96-2.206H113.73c-1.27 0-2.165 1.25-1.756 2.454l11.792 34.61-11.09 15.65c-.872 1.23.007 2.927 1.513 2.927h10.7c1.013 0 1.962-.496 2.54-1.33l35.614-51.398c.852-1.23-.028-2.912-1.524-2.912z"/><path fill="#009EDD" d="M276.03 4.9l-9.134 58.097c-.177 1.127.693 2.145 1.832 2.145h9.185c1.52 0 2.816-1.106 3.054-2.608L289.97 5.48c.18-1.127-.69-2.145-1.83-2.145H277.86c-.914-.002-1.692.663-1.833 1.565z"/><g fill="#99999A"><path d="M326.233 43.975c.906-2.976 2.22-5.84 3.936-8.593 1.714-2.752 3.772-5.188 6.172-7.308s5.1-3.812 8.093-5.076c2.992-1.264 6.226-1.896 9.69-1.896s6.308.633 8.534 1.896c2.222 1.264 3.886 2.957 4.993 5.076 1.104 2.12 1.678 4.556 1.715 7.308s-.398 5.617-1.306 8.593c-.907 2.978-2.22 5.84-3.938 8.592-1.715 2.752-3.773 5.188-6.174 7.31-2.398 2.12-5.1 3.812-8.09 5.074-2.996 1.265-6.228 1.897-9.692 1.897s-6.31-.633-8.533-1.896c-2.225-1.262-3.89-2.954-4.996-5.073-1.105-2.12-1.68-4.558-1.716-7.31s.4-5.616 1.31-8.592zm5.81 0c-.672 2.2-1.05 4.37-1.13 6.512-.083 2.142.227 4.066.927 5.78s1.852 3.087 3.45 4.128c1.6 1.04 3.723 1.56 6.374 1.56 2.65 0 5.09-.52 7.326-1.56 2.23-1.04 4.223-2.416 5.967-4.13 1.746-1.712 3.23-3.638 4.455-5.778 1.223-2.14 2.17-4.31 2.842-6.512.672-2.203 1.05-4.374 1.13-6.514.083-2.14-.228-4.065-.927-5.778-.7-1.712-1.852-3.088-3.45-4.128-1.6-1.04-3.724-1.56-6.374-1.56-2.65 0-5.092.52-7.324 1.56-2.235 1.04-4.225 2.416-5.97 4.128s-3.23 3.638-4.453 5.78c-1.226 2.14-2.174 4.31-2.845 6.513zM377.468 34.19h5.2l-1.308 4.28h.123c1.39-1.753 3.122-3.027 5.2-3.822 2.078-.796 4.218-1.192 6.418-1.192 2.448 0 4.44.448 5.98 1.346s2.68 2.11 3.417 3.64c.736 1.528 1.104 3.292 1.106 5.29.003 1.997-.338 4.118-1.02 6.36-.687 2.242-1.628 4.363-2.83 6.36-1.2 1.997-2.628 3.738-4.284 5.228s-3.525 2.672-5.607 3.547c-2.082.877-4.326 1.314-6.73 1.314-.815 0-1.668-.08-2.555-.243-.89-.162-1.742-.438-2.562-.824-.82-.39-1.553-.896-2.194-1.53-.643-.632-1.107-1.415-1.392-2.353h-.123l-4.98 16.328h-5.196l13.338-43.73zm19.724 15.533c.446-1.47.69-2.904.733-4.312.04-1.405-.168-2.66-.627-3.76s-1.21-1.978-2.256-2.63c-1.045-.65-2.402-.98-4.074-.98-1.752 0-3.348.348-4.78 1.04-1.437.693-2.712 1.602-3.826 2.722-1.117 1.122-2.066 2.396-2.85 3.823s-1.395 2.875-1.843 4.342c-.474 1.55-.747 3.05-.823 4.494-.073 1.45.12 2.724.578 3.823.46 1.102 1.217 1.987 2.277 2.66 1.057.674 2.484 1.01 4.277 1.01 1.753 0 3.347-.347 4.78-1.04 1.436-.692 2.692-1.61 3.774-2.75 1.082-1.143 2.01-2.448 2.785-3.915.777-1.47 1.4-2.977 1.872-4.525zM433.995 55.777c-1.764 3.507-4.11 6.177-7.04 8.01-2.93 1.837-6.192 2.753-9.788 2.753-2.533 0-4.602-.418-6.205-1.252-1.604-.836-2.813-1.988-3.635-3.457-.818-1.467-1.234-3.22-1.246-5.258-.01-2.038.31-4.26.962-6.665.72-2.365 1.758-4.558 3.107-6.574 1.35-2.02 2.908-3.762 4.683-5.23 1.77-1.467 3.688-2.607 5.752-3.424s4.176-1.225 6.336-1.225c2.815 0 4.972.58 6.472 1.742s2.537 2.642 3.113 4.435c.572 1.795.75 3.75.53 5.87-.216 2.122-.66 4.14-1.325 6.056h-23.666c-.465 1.387-.7 2.7-.715 3.945-.013 1.244.24 2.344.767 3.303.52.957 1.328 1.723 2.418 2.293 1.09.57 2.49.854 4.203.854 2.16 0 4.11-.51 5.85-1.53 1.736-1.017 3.147-2.567 4.23-4.645l5.197-.003zm-2.39-8.806c.29-1.222.37-2.384.236-3.485-.132-1.1-.476-2.048-1.025-2.843-.554-.796-1.31-1.427-2.267-1.896-.96-.47-2.07-.703-3.332-.703-1.346 0-2.633.234-3.854.703-1.226.47-2.35 1.11-3.37 1.927-1.024.816-1.925 1.764-2.702 2.844-.78 1.08-1.395 2.232-1.85 3.455h18.166zM446.39 34.19h4.894l-1.53 5.015h.122c1.697-1.957 3.555-3.403 5.574-4.343 2.02-.938 4.17-1.406 6.453-1.406 2.08 0 3.725.286 4.938.855 1.212.572 2.09 1.367 2.638 2.386.546 1.02.775 2.232.693 3.64-.083 1.407-.384 2.966-.905 4.68l-6.342 20.792h-5.2l6.53-21.404c.596-1.957.496-3.506-.295-4.647-.795-1.143-2.19-1.713-4.188-1.713-1.59 0-3.04.245-4.352.733-1.31.49-2.492 1.184-3.54 2.08-1.048.896-1.948 1.947-2.702 3.148-.756 1.203-1.35 2.518-1.785 3.945l-5.443 17.856h-5.2l9.643-31.617zM523.282 34.922c.63-3.14.19-5.412-1.314-6.818-1.508-1.407-3.77-2.11-6.787-2.11-1.222 0-2.462.123-3.72.367-1.256.246-2.432.654-3.52 1.225-1.094.57-2.06 1.336-2.903 2.293-.842.958-1.48 2.15-1.916 3.577-.41 1.346-.345 2.438.194 3.27.54.837 1.393 1.522 2.557 2.05 1.163.53 2.528.97 4.095 1.314 1.566.346 3.162.724 4.79 1.13s3.196.888 4.7 1.438c1.504.55 2.764 1.295 3.783 2.23 1.018.94 1.705 2.132 2.06 3.58.353 1.446.206 3.23-.44 5.35-.708 2.325-1.836 4.313-3.38 5.965-1.542 1.65-3.288 2.995-5.234 4.034-1.947 1.04-4.006 1.806-6.174 2.293-2.166.49-4.25.734-6.246.734-2.447 0-4.668-.307-6.662-.918-1.996-.61-3.625-1.55-4.892-2.812-1.266-1.264-2.082-2.863-2.448-4.802-.37-1.936-.148-4.23.66-6.88h5.504c-.56 1.835-.685 3.415-.375 4.74.31 1.325.917 2.415 1.816 3.27.9.857 2.053 1.49 3.457 1.896 1.404.408 2.94.61 4.615.61 1.303 0 2.656-.122 4.057-.366 1.398-.244 2.717-.662 3.96-1.254 1.24-.59 2.34-1.396 3.307-2.414.96-1.02 1.688-2.324 2.172-3.914.46-1.508.434-2.732-.074-3.67-.51-.938-1.326-1.7-2.45-2.293-1.124-.593-2.464-1.08-4.017-1.47-1.556-.387-3.15-.764-4.793-1.13-1.642-.368-3.22-.806-4.734-1.314-1.518-.51-2.807-1.193-3.87-2.05-1.064-.854-1.794-1.936-2.19-3.24-.397-1.305-.292-2.955.318-4.953.67-2.202 1.7-4.107 3.088-5.718 1.39-1.61 2.984-2.937 4.79-3.976 1.807-1.04 3.733-1.812 5.786-2.324 2.052-.51 4.074-.765 6.072-.765 2.242 0 4.24.267 5.996.795 1.754.53 3.17 1.367 4.25 2.507 1.078 1.142 1.78 2.578 2.108 4.31.326 1.733.164 3.803-.485 6.208h-5.507v.004zM530.48 50.027c.708-2.32 1.695-4.493 2.964-6.512 1.268-2.02 2.78-3.77 4.54-5.26 1.76-1.487 3.716-2.66 5.872-3.518 2.157-.854 4.5-1.283 7.026-1.283 2.486 0 4.56.43 6.213 1.283 1.656.856 2.908 2.03 3.76 3.518.85 1.49 1.296 3.24 1.33 5.26.037 2.02-.3 4.19-1.008 6.512-.71 2.324-1.692 4.486-2.955 6.482-1.262 1.997-2.77 3.74-4.53 5.23-1.76 1.486-3.728 2.658-5.902 3.515-2.18.854-4.512 1.283-6.998 1.283-2.527 0-4.607-.43-6.242-1.283-1.635-.855-2.88-2.027-3.73-3.516-.852-1.49-1.298-3.233-1.34-5.23-.045-1.996.29-4.158 1-6.483zm5.5 0c-.583 1.918-.85 3.62-.793 5.107.056 1.488.38 2.732.974 3.73.59 1 1.41 1.764 2.45 2.293 1.04.53 2.233.795 3.58.795 1.346 0 2.698-.265 4.063-.795 1.363-.53 2.646-1.293 3.85-2.293 1.2-.998 2.283-2.242 3.246-3.73s1.737-3.19 2.32-5.107c.585-1.916.85-3.616.794-5.104s-.377-2.742-.96-3.76c-.59-1.02-1.4-1.795-2.44-2.325-1.042-.53-2.235-.795-3.58-.795-1.348 0-2.702.266-4.065.795-1.366.53-2.65 1.306-3.857 2.324-1.21 1.02-2.296 2.272-3.26 3.76s-1.738 3.19-2.322 5.105zM588.655 65.807h-4.894l1.53-5.016h-.123c-1.697 1.958-3.557 3.404-5.574 4.343-2.02.938-4.172 1.406-6.453 1.406-2.08 0-3.725-.286-4.938-.856-1.213-.57-2.092-1.365-2.635-2.385-.547-1.022-.78-2.233-.695-3.64.082-1.406.385-2.968.906-4.68l6.344-20.792h5.197l-6.528 21.405c-.598 1.957-.5 3.506.293 4.646.793 1.142 2.19 1.712 4.188 1.712 1.59 0 3.04-.244 4.352-.734 1.312-.488 2.49-1.182 3.54-2.078 1.048-.896 1.948-1.947 2.702-3.15.754-1.2 1.35-2.516 1.785-3.942L593.1 34.19h5.197l-9.642 31.617zM605.942 34.19h4.893l-2.033 6.665h.12c2.048-2.567 4.177-4.465 6.384-5.688 2.21-1.225 4.707-1.794 7.494-1.713l-1.68 5.504c-2.078 0-3.94.286-5.58.855-1.644.57-3.08 1.407-4.312 2.507-1.23 1.103-2.297 2.447-3.188 4.037-.896 1.59-1.646 3.386-2.254 5.382l-4.29 14.064H596.3l9.644-31.615zM643.76 44.34c.2-1.996-.193-3.546-1.183-4.647-.99-1.1-2.564-1.65-4.726-1.65-1.874 0-3.552.347-5.023 1.04-1.478.692-2.767 1.61-3.867 2.752-1.104 1.14-2.045 2.456-2.824 3.943-.78 1.488-1.412 3.027-1.896 4.617-.447 1.47-.71 2.896-.787 4.28-.076 1.388.088 2.622.492 3.7.403 1.082 1.088 1.946 2.05 2.6s2.28.98 3.954.98c2.525 0 4.73-.684 6.616-2.05 1.885-1.365 3.354-3.25 4.416-5.656h5.32c-1.753 3.872-4.142 6.89-7.165 9.05-3.022 2.162-6.532 3.24-10.528 3.24-2.407 0-4.415-.396-6.026-1.19-1.613-.796-2.824-1.907-3.63-3.335-.81-1.426-1.23-3.127-1.257-5.104-.03-1.977.315-4.147 1.037-6.514.723-2.362 1.703-4.576 2.942-6.635 1.238-2.057 2.713-3.852 4.425-5.38 1.71-1.53 3.626-2.73 5.748-3.608 2.123-.877 4.445-1.314 6.976-1.314 1.793 0 3.41.215 4.85.643 1.44.43 2.633 1.092 3.584 1.988.95.896 1.592 2.028 1.93 3.395.34 1.367.322 2.986-.047 4.86h-5.38v-.003zM678.675 55.777c-1.764 3.507-4.108 6.177-7.04 8.01-2.93 1.837-6.19 2.753-9.786 2.753-2.535 0-4.603-.418-6.206-1.252-1.604-.836-2.815-1.988-3.635-3.457-.82-1.467-1.234-3.22-1.247-5.258-.012-2.038.31-4.26.96-6.665.723-2.365 1.758-4.558 3.106-6.574 1.35-2.02 2.91-3.762 4.683-5.23 1.77-1.467 3.69-2.607 5.754-3.424 2.063-.817 4.175-1.225 6.337-1.225 2.812 0 4.97.58 6.47 1.742s2.538 2.642 3.112 4.435c.573 1.795.752 3.75.532 5.87-.22 2.122-.66 4.14-1.325 6.056h-23.668c-.466 1.387-.7 2.7-.716 3.945-.013 1.244.243 2.344.768 3.303.52.957 1.33 1.723 2.418 2.293 1.09.57 2.492.854 4.205.854 2.16 0 4.11-.51 5.85-1.53 1.737-1.017 3.145-2.567 4.23-4.645l5.195-.003zm-2.39-8.806c.292-1.222.372-2.384.24-3.485-.135-1.1-.48-2.048-1.03-2.843-.553-.796-1.31-1.427-2.267-1.896-.956-.47-2.067-.703-3.33-.703-1.348 0-2.633.234-3.855.703-1.225.47-2.348 1.11-3.37 1.927-1.023.816-1.925 1.764-2.702 2.844-.777 1.08-1.394 2.232-1.847 3.455h18.163z"/></g></svg>