<svg xmlns="http://www.w3.org/2000/svg" width="149" height="148.5" viewBox="0 0 149 148.5"><g><path d="M61.25 62.625h26.458v23.208H61.25z"/><path fill="#fff" d="M62.208 61.792H87V86.75H62.208z"/><circle stroke="#000" stroke-miterlimit="10" cx="74.613" cy="74.452" r="72"/></g><g fill="#fff"><path d="M115.563 62.82l-29.54-29.54c-3.13 2.938-7.33 4.75-11.96 4.75-4.312 0-8.254-1.567-11.305-4.154l-29.6 29.6c2.588 3.05 4.155 6.99 4.155 11.305 0 4.19-1.475 8.03-3.93 11.043l29.64 29.638c3.01-2.453 6.852-3.928 11.04-3.928 4.506 0 8.6 1.718 11.703 4.515l29.563-29.563c-2.798-3.102-4.516-7.197-4.516-11.703 0-4.63 1.81-8.83 4.75-11.96zM102.69 85.87l-15.75 15.75V86.374H62.19v15.244L46.44 85.87h15.435V62.62H46.44l15.75-15.75v15.38h24.75V46.87l15.75 15.75H87.25v23.25h15.44z"/><circle cx="74.361" cy="19.202" r="11.25"/><circle cx="74.361" cy="129.702" r="11.25"/><circle cx="19.55" cy="74.664" r="11.25"/><circle cx="129.675" cy="74.664" r="11.25"/></g><g><circle fill="#fff" stroke="#000" stroke-width="3" stroke-miterlimit="10" cx="74.375" cy="73.959" r="23.458"/><path d="M65.385 87.016l-.374-.345-.083-23.546.416-.61.873-.014L88.03 74.343l.167.415-.166.332-22.027 12.035z"/></g></svg>